<!DOCTYPE svg PUBLIC "-//W3C//DTD SVG 20010904//EN" "http://www.w3.org/TR/2001/REC-SVG-20010904/DTD/svg10.dtd">
<svg version="1.0" xmlns="http://www.w3.org/2000/svg"
 width="266.000000pt" height="174.000000pt" viewBox="0 0 266.000000 174.000000"
 preserveAspectRatio="xMidYMid meet">

<g transform="translate(0.000000,174.000000) scale(0.100000,-0.100000)"
fill="#000000" stroke="none">
<path d="M416 1397 c-71 -68 -127 -128 -125 -135 8 -22 931 -943 942 -939 6 2
222 215 479 473 l468 469 -78 74 c-42 41 -103 99 -135 130 l-57 56 -333 -333
c-183 -182 -339 -332 -347 -332 -8 0 -164 149 -345 330 -181 182 -332 330
-335 330 -3 0 -63 -56 -134 -123z"/>
</g>
</svg>
