<?xml version="1.0" standalone="no"?>
<!DOCTYPE svg PUBLIC "-//W3C//DTD SVG 20010904//EN"
 "http://www.w3.org/TR/2001/REC-SVG-20010904/DTD/svg10.dtd">
<svg version="1.0" xmlns="http://www.w3.org/2000/svg"
 width="239.000000pt" height="155.000000pt" viewBox="0 0 239.000000 155.000000"
 preserveAspectRatio="xMidYMid meet">

<g transform="translate(0.000000,155.000000) scale(0.100000,-0.100000)"
fill="#000000" stroke="none">
<path d="M644 874 c-252 -256 -461 -470 -463 -476 -4 -12 238 -258 254 -258 6
0 159 149 340 330 181 182 337 330 345 330 8 0 164 -148 345 -330 181 -182
334 -330 340 -330 13 0 255 242 255 255 -1 18 -924 946 -941 945 -9 0 -223
-210 -475 -466z"/>
</g>
</svg>
